<?xml version="1.0" encoding="UTF-8" standalone="no"?>
<svg
   width="512"
   height="512"
   viewBox="0 0 512 512"
   version="1.1"
   id="svg4"
   sodipodi:docname="gammagate.svg"
   inkscape:version="1.1.1 (3bf5ae0d25, 2021-09-20, custom)"
   xmlns:inkscape="http://www.inkscape.org/namespaces/inkscape"
   xmlns:sodipodi="http://sodipodi.sourceforge.net/DTD/sodipodi-0.dtd"
   xmlns="http://www.w3.org/2000/svg"
   xmlns:svg="http://www.w3.org/2000/svg">
  <defs
     id="defs8" />
  <sodipodi:namedview
     id="namedview6"
     pagecolor="#ffffff"
     bordercolor="#666666"
     borderopacity="1.0"
     inkscape:pageshadow="2"
     inkscape:pageopacity="0.0"
     inkscape:pagecheckerboard="0"
     showgrid="false"
     inkscape:zoom="1.6230469"
     inkscape:cx="255.69194"
     inkscape:cy="255.69194"
     inkscape:window-width="1830"
     inkscape:window-height="1050"
     inkscape:window-x="60"
     inkscape:window-y="0"
     inkscape:window-maximized="1"
     inkscape:current-layer="svg4" />
  <path
     d="M 368.977 36.243 C 362.357 38.534, 351.702 45.459, 346.814 50.648 C 342.091 55.661, 341.674 58.286, 344.523 65.056 C 352.822 84.773, 352.523 107.075, 343.483 142.560 C 335.262 174.826, 317.398 220.532, 295.530 265.250 C 288.579 279.465, 286.005 283.380, 285.997 279.750 C 285.989 276.023, 278.540 227.628, 275.549 211.869 C 264.121 151.671, 243.493 91.436, 224.593 63.076 C 217.455 52.366, 207.717 42.427, 201.009 39.005 C 191.648 34.229, 178.904 35.768, 155.500 44.499 C 142.952 49.181, 118.049 61.708, 117.274 63.728 C 116.954 64.562, 117.486 68.611, 118.456 72.726 L 120.219 80.206 123.360 79.568 C 147.311 74.701, 161.399 77.406, 172.887 89.077 C 181.769 98.100, 195.953 121.005, 206.484 143.333 C 228.709 190.451, 246.770 256.099, 252.488 310.548 C 254.302 327.823, 254.880 322.134, 244.474 389.500 C 240.397 415.900, 236.155 444.700, 235.049 453.500 L 233.038 469.500 236.769 472.789 C 242.539 477.875, 242.865 477.948, 250.802 475.925 C 265.443 472.193, 284.671 462.841, 294.701 454.574 L 298.301 451.606 297.678 434.553 C 297.336 425.174, 295.934 399.950, 294.563 378.500 C 293.192 357.050, 291.860 336.174, 291.602 332.108 C 291.142 324.859, 291.248 324.446, 297.161 310.608 C 305.769 290.464, 318.637 264.201, 333.470 236.500 C 367.988 172.038, 385.680 131.826, 392.646 102 C 395.988 87.691, 396.895 66.393, 394.584 56.500 C 390.077 37.207, 382.808 31.457, 368.977 36.243"
     stroke="none"
     fill="black"
     fill-rule="evenodd"
     id="path2"
     style="fill:#ffffff" />
</svg>
